<svg xmlns="http://www.w3.org/2000/svg" width="159.336" height="32" viewBox="0 0 159.336 32">
    <g data-name="Group 12">
        <g data-name="Group 10">
            <path d="M46.558 3.742a15.32 15.32 0 0 1 3.2.309 6.9 6.9 0 0 1 2.477 1.013 4.716 4.716 0 0 1 1.6 1.871 6.566 6.566 0 0 1 .567 2.884 5.362 5.362 0 0 1-.843 3.091 6.122 6.122 0 0 1-2.494 2.027 5.9 5.9 0 0 1 3.388 2.283 7.486 7.486 0 0 1 .4 7.142 6.251 6.251 0 0 1-1.944 2.215 8.618 8.618 0 0 1-2.786 1.271 12.6 12.6 0 0 1-3.216.412h-11.9V3.742zm-.688 9.924a3.887 3.887 0 0 0 2.373-.687 2.591 2.591 0 0 0 .928-2.232 2.848 2.848 0 0 0-.309-1.408 2.3 2.3 0 0 0-.825-.859 3.475 3.475 0 0 0-1.187-.429 7.926 7.926 0 0 0-1.393-.12h-5.056v5.734zm.309 10.4a7.2 7.2 0 0 0 1.514-.154 3.732 3.732 0 0 0 1.272-.515 2.59 2.59 0 0 0 .877-.978 3.367 3.367 0 0 0 .327-1.58 3.171 3.171 0 0 0-1.066-2.7 4.56 4.56 0 0 0-2.82-.806h-5.882v6.739z" data-name="Path 346"/>
            <path d="M63.644 10.477v3.3h.068a5.993 5.993 0 0 1 .929-1.53 6.074 6.074 0 0 1 1.342-1.2 6.566 6.566 0 0 1 1.616-.774 5.832 5.832 0 0 1 1.789-.276 3.829 3.829 0 0 1 1.066.172v4.541a8.896 8.896 0 0 0-.824-.121 8.791 8.791 0 0 0-.93-.051 5.209 5.209 0 0 0-2.27.447 3.935 3.935 0 0 0-1.5 1.221 4.894 4.894 0 0 0-.809 1.805 9.821 9.821 0 0 0-.241 2.236v8.016H59V10.477z" data-name="Path 347"/>
            <path d="M73 7.76V3.742h4.885V7.76zm4.885 2.747v17.754H73V10.507z" data-name="Path 348"/>
            <path d="M85.61 10.477v2.408h.069a6.96 6.96 0 0 1 2.319-2.129 6.292 6.292 0 0 1 3.113-.757 7.167 7.167 0 0 1 3.079.654 4.329 4.329 0 0 1 2.115 2.3 7.567 7.567 0 0 1 2.149-2.063 5.718 5.718 0 0 1 3.216-.895 9.5 9.5 0 0 1 2.615.344 5.267 5.267 0 0 1 2.063 1.1 5.054 5.054 0 0 1 1.342 1.977 8.038 8.038 0 0 1 .481 2.941v11.9h-4.884V18.182q0-.894-.069-1.685a3.588 3.588 0 0 0-.378-1.376 2.29 2.29 0 0 0-.911-.929 3.3 3.3 0 0 0-1.634-.344 3.134 3.134 0 0 0-1.668.4 2.873 2.873 0 0 0-1 1.033 4.13 4.13 0 0 0-.481 1.444 11.008 11.008 0 0 0-.121 1.634v9.907h-4.884v-9.98q0-.792-.035-1.566a4.418 4.418 0 0 0-.292-1.428 2.21 2.21 0 0 0-.86-1.049 3.256 3.256 0 0 0-1.772-.4 3.675 3.675 0 0 0-.911.155 3.026 3.026 0 0 0-1.1.585 3.405 3.405 0 0 0-.911 1.239 5.017 5.017 0 0 0-.378 2.115v10.32h-4.884v-17.78z" data-name="Path 349"/>
            <path d="M116.609 10.477v2.408h.069A6.96 6.96 0 0 1 119 10.752a6.3 6.3 0 0 1 3.114-.757 7.164 7.164 0 0 1 3.078.654 4.326 4.326 0 0 1 2.115 2.3 7.578 7.578 0 0 1 2.149-2.063 5.718 5.718 0 0 1 3.216-.895 9.5 9.5 0 0 1 2.615.344 5.267 5.267 0 0 1 2.063 1.1 5.054 5.054 0 0 1 1.342 1.977 8.038 8.038 0 0 1 .481 2.941v11.9h-4.884V18.182q0-.894-.069-1.685a3.573 3.573 0 0 0-.378-1.376 2.29 2.29 0 0 0-.911-.929 3.3 3.3 0 0 0-1.634-.344 3.131 3.131 0 0 0-1.667.4 2.858 2.858 0 0 0-1 1.033 4.113 4.113 0 0 0-.482 1.444 11.007 11.007 0 0 0-.12 1.634v9.907h-4.883v-9.98q0-.792-.034-1.566a4.418 4.418 0 0 0-.292-1.428 2.205 2.205 0 0 0-.86-1.049 3.256 3.256 0 0 0-1.772-.4 3.675 3.675 0 0 0-.911.155 3.04 3.04 0 0 0-1.1.585 3.405 3.405 0 0 0-.911 1.239 5.017 5.017 0 0 0-.378 2.115v10.32h-4.885v-17.78z" data-name="Path 350"/>
            <path d="M142.551 15.946a5.669 5.669 0 0 1 .86-2.855 5.855 5.855 0 0 1 1.926-1.823 8.386 8.386 0 0 1 2.632-.981 15.024 15.024 0 0 1 2.941-.292 20.024 20.024 0 0 1 2.718.19 8.351 8.351 0 0 1 2.511.739 4.955 4.955 0 0 1 1.858 1.53 4.283 4.283 0 0 1 .722 2.6v9.254a18.472 18.472 0 0 0 .138 2.3 4.164 4.164 0 0 0 .481 1.652h-4.953a6.882 6.882 0 0 1-.224-.843 7.173 7.173 0 0 1-.119-.877 6.382 6.382 0 0 1-2.752 1.686 11.1 11.1 0 0 1-3.234.481 8.73 8.73 0 0 1-2.373-.31 5.424 5.424 0 0 1-1.926-.963 4.489 4.489 0 0 1-1.291-1.651 5.589 5.589 0 0 1-.464-2.374 5.179 5.179 0 0 1 .533-2.493 4.443 4.443 0 0 1 1.376-1.565 6.185 6.185 0 0 1 1.926-.878 20.868 20.868 0 0 1 2.184-.464q1.1-.171 2.167-.275a12.868 12.868 0 0 0 1.893-.31 3.31 3.31 0 0 0 1.307-.6 1.323 1.323 0 0 0 .447-1.153 2.587 2.587 0 0 0-.258-1.255 1.886 1.886 0 0 0-.687-.723 2.718 2.718 0 0 0-1-.344 8.2 8.2 0 0 0-1.221-.086 3.709 3.709 0 0 0-2.271.619 2.769 2.769 0 0 0-.963 2.064zm11.282 3.61a2.184 2.184 0 0 1-.774.429 7.828 7.828 0 0 1-1 .257c-.356.07-.729.126-1.119.173s-.78.1-1.17.171a8.971 8.971 0 0 0-1.083.276 3.175 3.175 0 0 0-.929.464 2.2 2.2 0 0 0-.637.739 2.379 2.379 0 0 0-.241 1.134 2.3 2.3 0 0 0 .241 1.1 1.837 1.837 0 0 0 .653.7 2.754 2.754 0 0 0 .963.362 6.177 6.177 0 0 0 1.135.1 4.313 4.313 0 0 0 2.236-.482 3.219 3.219 0 0 0 1.17-1.153 3.693 3.693 0 0 0 .464-1.358 9.385 9.385 0 0 0 .086-1.1z" data-name="Path 351"/>
        </g>
        <g data-name="Group 11">
            <path d="M22.666 9.371L13.282 0l-2.893 2.892v7.2h2.886a8.65 8.65 0 1 1-8.659 8.647V8.654l-.717.717a13.212 13.212 0 0 0 0 18.742 12.788 12.788 0 0 0 9.377 3.886 12.8 12.8 0 0 0 9.391-3.886 13.248 13.248 0 0 0 0-18.742z" data-name="Path 352"/>
            <circle cx="2.886" cy="2.886" r="2.886" data-name="Ellipse 43" transform="translate(10.389 15.853)"/>
        </g>
    </g>
</svg>
